<?xml version="1.0" encoding="UTF-8" standalone="no"?>
<svg
   id="Logo_2_-_Lucho"
   version="1.1"
   viewBox="0 0 1073.45 668.77001"
   sodipodi:docname="Lucho Logo 2026-01.svg"
   width="1073.45"
   height="668.77002"
   inkscape:version="1.4.2 (ebf0e940, 2025-05-08)"
   xmlns:inkscape="http://www.inkscape.org/namespaces/inkscape"
   xmlns:sodipodi="http://sodipodi.sourceforge.net/DTD/sodipodi-0.dtd"
   xmlns="http://www.w3.org/2000/svg"
   xmlns:svg="http://www.w3.org/2000/svg">
  <sodipodi:namedview
     id="namedview10"
     pagecolor="#ffffff"
     bordercolor="#000000"
     borderopacity="0.25"
     inkscape:showpageshadow="2"
     inkscape:pageopacity="0.0"
     inkscape:pagecheckerboard="0"
     inkscape:deskcolor="#d1d1d1"
     inkscape:zoom="0.2467217"
     inkscape:cx="476.24509"
     inkscape:cy="216.84351"
     inkscape:window-width="1920"
     inkscape:window-height="1022"
     inkscape:window-x="0"
     inkscape:window-y="30"
     inkscape:window-maximized="1"
     inkscape:current-layer="g4" />
  <!-- Generator: Adobe Illustrator 30.1.0, SVG Export Plug-In . SVG Version: 2.1.1 Build 136)  -->
  <defs
     id="defs1">
    <style
       id="style1">
      .st0 {
        fill: #fdc800;
      }

      .st1 {
        fill: #fff;
      }

      .st2 {
        fill: #1c4b18;
      }
    </style>
  </defs>
  <g
     id="g10"
     transform="translate(-102.76,-265.42)">
    <g
       id="g4">
      <path
         class="st2"
         d="m 208.19,869.2 c -23.05,0 -40.43,-21.88 -40.43,-50.9 V 482.43 c 0,-15.77 5.13,-31.09 14.45,-43.16 8.88,-11.49 20.42,-18.51 32.51,-19.77 l 852.22,-88.88 c 1.28,-0.13 2.57,-0.2 3.84,-0.2 23.05,0 40.43,21.88 40.43,50.9 v 335.87 c 0,15.77 -5.13,31.09 -14.45,43.16 -8.88,11.49 -20.42,18.51 -32.51,19.77 L 212.03,869 c -1.28,0.13 -2.57,0.2 -3.84,0.2 z"
         id="path1"
         style="fill:#166534;fill-opacity:1" />
      <path
         class="st0"
         d="m 1070.78,343.42 c 8.63,0 14.58,4.91 18.05,9.03 6.05,7.18 9.38,17.44 9.38,28.87 v 335.87 c 0,12.72 -4.28,25.55 -11.74,35.21 -6.68,8.65 -15.05,13.9 -23.57,14.79 l -852.23,88.88 c -0.84,0.09 -1.67,0.13 -2.49,0.13 -8.64,0 -14.58,-4.91 -18.05,-9.03 -6.05,-7.18 -9.38,-17.43 -9.38,-28.87 V 482.43 c 0,-12.72 4.28,-25.55 11.74,-35.21 6.68,-8.65 15.05,-13.9 23.57,-14.79 l 852.23,-88.88 c 0.83,-0.09 1.67,-0.13 2.49,-0.13 m 0,-26 c -1.71,0 -3.44,0.09 -5.18,0.27 l -852.22,88.88 c -32.37,3.38 -58.61,37.34 -58.61,75.85 v 335.87 c 0,36.44 23.48,63.9 53.43,63.9 1.71,0 3.44,-0.09 5.18,-0.27 l 852.22,-88.88 c 32.37,-3.38 58.61,-37.34 58.61,-75.85 V 381.32 c 0,-36.44 -23.48,-63.9 -53.43,-63.9 z"
         id="path2" />
      <path
         class="st1"
         d="m 1070.78,317.42 c 29.94,0 53.43,27.46 53.43,63.9 v 335.87 c 0,38.52 -26.24,72.48 -58.61,75.85 l -852.23,88.88 c -1.75,0.18 -3.48,0.27 -5.18,0.27 -29.94,0 -53.43,-27.46 -53.43,-63.9 V 482.42 c 0,-38.52 26.24,-72.48 58.61,-75.85 l 852.23,-88.88 c 1.75,-0.18 3.48,-0.27 5.18,-0.27 m 0.01,-52 h -0.01 c -3.51,0 -7.07,0.19 -10.58,0.55 l -852.22,88.88 c -59,6.15 -105.22,62.19 -105.22,127.57 v 335.87 c 0,64.99 46.31,115.9 105.43,115.9 3.51,0 7.07,-0.19 10.58,-0.55 l 852.22,-88.88 c 59,-6.15 105.22,-62.19 105.22,-127.57 V 381.32 c 0,-64.99 -46.3,-115.89 -105.42,-115.9 z"
         id="path3" />
      <path
         class="st2"
         d="m 1070.78,317.42 c 29.94,0 53.43,27.46 53.43,63.9 v 335.87 c 0,38.52 -26.24,72.48 -58.61,75.85 l -852.22,88.88 c -1.75,0.18 -3.48,0.27 -5.18,0.27 -29.94,0 -53.43,-27.46 -53.43,-63.9 V 482.42 c 0,-38.52 26.24,-72.48 58.61,-75.85 l 852.22,-88.88 c 1.75,-0.18 3.48,-0.27 5.18,-0.27 m 0,-26 v 0 c -2.61,0 -5.26,0.14 -7.88,0.41 l -852.22,88.88 c -22.79,2.38 -43.86,14.7 -59.32,34.71 -14.57,18.86 -22.59,42.65 -22.59,67 v 335.87 c 0,23.67 7.67,45.82 21.59,62.36 14.95,17.76 35.49,27.54 57.83,27.54 2.61,0 5.26,-0.14 7.88,-0.41 l 852.22,-88.88 c 22.79,-2.38 43.86,-14.71 59.32,-34.71 14.57,-18.86 22.59,-42.65 22.59,-67 V 381.32 c 0,-23.67 -7.67,-45.82 -21.59,-62.36 -14.95,-17.76 -35.49,-27.54 -57.83,-27.54 z"
         id="path4"
         style="fill:#166534;fill-opacity:1" />
    </g>
    <g
       id="g9">
      <path
         class="st1"
         d="m 252.52,715.85 c -0.68,0.07 -3.41,0.63 -7.26,1.03 -3.63,0.65 -8.4,1.42 -13.17,1.91 -8.63,0.9 -16.12,-2.37 -16.12,-14.26 0,-16.21 12.94,-10.53 18.62,-27.61 5.22,-15.67 12.94,-90.77 12.94,-111.57 0,-11.62 -16.35,-4.78 -16.35,-20.18 0,-15.4 16.57,-20.37 59.71,-24.87 28.61,-2.98 33.15,3.03 33.15,13.02 0,24.31 -20.66,-1.09 -23.84,43.82 l -5.45,79.72 c -0.45,4.91 -1.14,11.46 0.23,15.91 2.5,6.76 14.08,4.48 18.84,3.98 28.83,-3.01 23.84,-35.44 40.41,-37.17 9.76,-1.02 13.62,6.14 13.62,17.22 0,14.32 -7.95,50.81 -23.38,52.42 -4.09,0.43 -6.13,-0.17 -8.17,-0.77 -2.27,-0.3 -4.54,-0.88 -9.31,-0.38 l -74.47,7.77 z"
         id="path5" />
      <path
         class="st1"
         d="m 529.95,595.34 c -5.9,49.24 -14.08,96.83 -76.51,103.34 -36.55,3.81 -68.56,-6.9 -68.56,-50.12 0,-31.34 9.31,-66.88 9.08,-94.69 -0.23,-18.35 -14.98,-4.38 -14.98,-20.59 0,-2.16 -5.22,-21.61 52.67,-27.64 35.87,-3.74 36.78,7.24 36.78,14.8 0,18.91 -17.71,5.9 -19.98,37.74 -6.58,63.36 -5.68,46.52 -7.49,72.64 -1.36,19.86 4.99,30.28 21.11,28.59 14.76,-1.54 24.75,-10.69 29.74,-27.68 7.26,-23.99 10.44,-64.57 10.44,-89.43 0,-20.8 -17.93,-5.69 -17.93,-25.14 0,-10.27 6.13,-17.66 35.87,-20.76 38.14,-3.98 36.55,8.61 36.55,12.67 0,19.72 -17.03,7.99 -19.75,30.15 l -7.04,56.11 z"
         id="path6" />
      <path
         class="st1"
         d="m 640.96,633.74 c 11.58,-1.21 19.3,-9.58 27.02,-19.57 4.77,-6.17 12.49,-19.4 20.66,-20.25 9.31,-0.97 13.39,6.44 13.39,16.7 0,14.32 -9.31,42.03 -23.38,44.58 q -4.77,1.04 -9.31,4.21 c -17.71,12.92 -30.88,19.97 -51.31,22.1 -37.69,3.93 -65.61,-20.17 -65.61,-66.64 0,-61.05 40.41,-126.86 95.35,-133.4 15.21,-1.86 24.75,3.63 27.24,3.37 2.72,-0.28 6.58,-3.39 9.76,-3.72 13.17,-1.37 23.84,23.18 23.84,39.93 0,15.13 -7.04,29.37 -20.89,30.81 -21.11,2.2 -17.94,-33.52 -38.37,-31.39 -22.7,2.37 -32.69,55.55 -32.69,75.27 0,18.37 5.9,39.91 24.29,37.99 z"
         id="path7" />
      <path
         class="st1"
         d="m 780.8,626.45 c 0,11.08 9.99,4.9 9.99,17.06 0,9.73 -4.99,18.89 -38.82,22.42 -27.7,2.89 -42.68,2.83 -42.68,-12.84 0,-11.89 12.49,-12.65 14.53,-20.97 10.22,-42.13 12.94,-88.06 12.94,-115.35 0,-15.67 -12.94,-6.21 -12.94,-21.07 0,-2.97 -3.41,-20.18 49.49,-25.69 27.47,-2.87 33.15,2.76 33.15,12.48 0,15.67 -13.39,12.2 -15.44,28.08 -1.82,14.24 -2.95,23.81 -2.95,29.48 0,3.78 -1.82,8.02 19.3,5.82 4.09,-0.43 13.85,-1.98 15.66,-8.12 1.59,-5.3 2.72,-26.49 2.72,-32.7 0,-14.86 -9.99,-7.87 -9.99,-21.11 0,-13.24 8.85,-19.29 46.31,-23.2 30.42,-3.17 35.19,2.54 35.19,11.73 0,17.83 -14.53,7.73 -16.8,28.77 -3.86,33.9 -9.53,75.01 -10.44,109.96 -0.45,20.04 12.26,5.2 12.26,23.03 0,10.27 -7.49,18.88 -38.59,22.12 -32.69,3.41 -44.27,3 -44.27,-12.67 0,-14.05 11.81,-8.53 13.85,-21.16 3.18,-19.51 4.99,-30.24 4.99,-38.07 0,-8.37 -9.76,-7.63 -14.76,-7.11 -19.3,2.01 -18.84,5.21 -20.43,16.18 l -2.27,32.92 z"
         id="path8" />
      <path
         class="st1"
         d="m 963.1,645.53 c -38.59,4.03 -67.2,-19.2 -67.2,-67.01 0,-67.27 44.27,-127.53 99.89,-133.33 38.59,-4.03 67.2,19.2 67.2,67.01 0,67.27 -44.27,127.53 -99.89,133.33 z m 38.83,-131.83 c 0,-10.54 -0.68,-34.24 -14.53,-32.79 -24.29,2.53 -30.42,75.3 -30.42,96.1 0,10.54 0.68,34.24 14.53,32.79 24.29,-2.53 30.42,-75.3 30.42,-96.1 z"
         id="path9" />
    </g>
  </g>
  <path
     class="st1"
     d="m 727.36,465.76 -16.88,0.86 -18.68,0.62 c -111.43,3.68 -222.59,18.65 -334.31,31.29 -7.75,0.88 -19.05,3.26 -21.22,-3.49 -0.72,-2.22 0.69,-7.52 2.75,-9.29 22.38,-19.28 360.9,-61.97 409.95,-64.87 l 12.29,-0.73 18.39,-0.88 20.64,-0.77 27.96,-0.37 c 11.36,-0.15 22.25,0.35 33.67,1.17 14.72,1.06 37.22,1.64 44.08,20.16 5.43,14.65 -16.4,33.91 -27.11,31.88 -16.57,-3.14 -32.23,-5.99 -49.18,-6.67 l -21.06,-0.84 -39.54,0.29 -22.76,0.73 -18.97,0.9 z"
     id="path10" />
</svg>
