<?xml version="1.0" encoding="UTF-8" standalone="no"?>
<!-- Created with Inkscape (http://www.inkscape.org/) -->

<svg
   width="180mm"
   height="100mm"
   viewBox="0 0 180 100"
   version="1.1"
   id="svg1"
   xmlns="http://www.w3.org/2000/svg"
   xmlns:svg="http://www.w3.org/2000/svg">
  <defs
     id="defs1" />
  <g
     id="layer1">
    <g
       id="Layer_1-2"
       data-name="Layer 1"
       transform="matrix(0.26458333,0,0,0.26458333,20.020842,69.96894)">
      <path
         class="cls-4"
         d="m 223.37792,-173.82126 c -9.94114,-9.73715 -19.41598,-17.94218 -30.41869,-25.996 -0.39685,-0.26209 -0.79373,-0.40318 -1.23024,-0.40318 -0.39683,0 -0.83338,0.13102 -1.26002,0.46366 -14.91172,11.94465 -29.5456,25.35086 -43.81243,40.1481 -14.2966,14.73678 -28.28563,30.33036 -42.7112,44.12968 4.56381,-3.3465 9.42523,-0.53423 16.91582,-9.14244 8.67121,-9.95889 17.20352,-18.29497 27.45221,-26.49997 9.961,-8.03368 20.0212,-15.3315 30.16078,-21.9741 5.60552,3.73961 6.82585,2.92315 10.78441,2.54011 5.32777,-0.52415 7.07391,-4.63675 10.11975,-6.67287 5.84365,3.46748 11.15153,7.09622 16.93565,11.40032 l 7.07389,-8.0034 z"
         id="path1"
         style="fill:#ffffff;fill-opacity:1;stroke-width:1.00003" />
      <g
         id="text5"
         style="font-weight:300;font-size:60.1902px;font-family:Kodchasan-Light, Kodchasan;fill:#ffffff;stroke-width:1.00003"
         class="cls-1"
         transform="scale(0.99210315,1.0079597)"
         aria-label="AscentData Insights">
        <path
           d="m -39.420048,6.0480566 q -0.902853,0 -1.384374,-0.601902 -0.481522,-0.5417118 -0.481522,-1.5649452 V -20.134681 q 0,-8.065487 4.514265,-12.579752 4.514265,-4.574455 12.579752,-4.574455 8.005297,0 12.519562,4.574455 4.5744551,4.574456 4.5744551,12.579752 V 3.8812094 q 0,1.0232334 -0.5417118,1.5649452 -0.4815216,0.601902 -1.3843747,0.601902 -0.902853,0 -1.4445646,-0.601902 -0.541712,-0.5417118 -0.541712,-1.5649452 V -10.383868 H -37.433771 V 3.8812094 q 0,1.0232334 -0.541712,1.5649452 -0.481522,0.601902 -1.444565,0.601902 z m 28.409775,-19.6821956 v -6.681112 q 0,-6.500542 -3.430841,-10.051764 -3.430842,-3.551222 -9.750813,-3.551222 -6.440351,0 -9.871193,3.551222 -3.370651,3.491032 -3.370651,10.051764 v 6.681112 z M 14.510378,6.0480566 q -4.092934,0 -7.764536,-1.6251354 Q 3.0742397,2.7375956 1.0277729,-0.09134388 0.6666317,-0.63305569 0.6666317,-1.1747675 q 0,-0.4815216 0.300951,-0.902853 0.3611412,-0.4213314 0.8426628,-0.601902 0.4815216,-0.1203804 0.6620922,-0.1203804 0.4213314,0 0.7824726,0.300951 0.3611412,0.2407608 0.902853,0.902853 3.7919827,4.2133141 10.3527147,4.2133141 3.310461,0 5.417118,-1.0834237 2.106657,-1.14361377 2.106657,-3.3706512 0,-1.5649452 -0.902853,-2.4677982 -0.842663,-0.9630432 -2.588179,-1.6853257 -1.745515,-0.7222824 -5.95883,-2.1668472 -3.6716018,-1.2639942 -5.7782588,-2.2872272 -2.106657,-1.023234 -3.3104611,-2.588179 -1.203804,-1.625135 -1.203804,-4.032744 0,-3.370651 3.0095101,-5.477308 3.00951,-2.106657 7.9451068,-2.106657 3.551222,0 6.681112,1.324185 3.190081,1.263994 4.755026,3.370651 0.421331,0.481521 0.421331,1.143614 0,0.842662 -0.842663,1.263994 -0.601902,0.300951 -1.083423,0.300951 -0.842663,0 -1.564945,-0.782473 -1.625136,-1.685325 -3.491032,-2.467798 -1.865896,-0.782473 -4.935597,-0.782473 -3.430841,0 -5.236547,1.143614 -1.7455158,1.083424 -1.7455158,3.190081 0,1.564945 0.7824726,2.467798 0.8426628,0.902853 2.2270374,1.504755 1.4445648,0.541712 5.2365478,1.745516 4.273504,1.4445648 6.681112,2.708559 2.407608,1.203804 3.491032,2.7687492 1.143613,1.5649453 1.143613,3.9123631 0,3.6716022 -3.19008,5.7782593 -3.129891,2.106657 -8.065487,2.106657 z m 32.984226,0 q -4.755026,0 -8.366438,-1.9260864 -3.611412,-1.9260864 -5.597688,-5.4171181 -1.986277,-3.4910316 -1.986277,-8.0654869 0,-4.5744552 1.986277,-8.0052972 1.986276,-3.491031 5.597688,-5.356927 3.611412,-1.926087 8.366438,-1.926087 8.96834,0 12.940893,4.875406 0.481522,0.601902 0.481522,1.143614 0,0.782473 -0.782473,1.384375 -0.361141,0.361141 -0.963043,0.361141 -0.421331,0 -0.902853,-0.180571 -0.421331,-0.24076 -0.722282,-0.601902 -1.685326,-1.865896 -4.153124,-2.768749 -2.467798,-0.902853 -5.89864,-0.902853 -5.838449,0 -9.02853,3.129891 -3.12989,3.0697 -3.12989,8.8479592 0,5.7180691 3.19008,8.90814972 3.190081,3.12989048 8.96834,3.12989048 3.250271,0 5.83845,-0.9028531 2.648368,-0.96304317 4.333694,-2.76874919 0.842663,-0.84266281 1.685326,-0.84266281 0.601902,0 1.023233,0.4213314 0.662092,0.66209221 0.662092,1.38437462 0,0.60190201 -0.541712,1.14361378 -2.828939,2.5279885 -6.01902,3.7317925 -3.12989,1.203804 -6.982063,1.203804 z m 35.391783,0 q -7.764536,0 -11.97785,-4.0327435 -4.213314,-4.0929336 -4.213314,-11.5565185 0,-6.9820636 4.273504,-11.0148066 4.333695,-4.092934 11.797279,-4.092934 4.634646,0 8.185868,1.504755 3.611412,1.444565 5.597688,4.092934 1.986277,2.648369 1.986277,6.07921 0,2.407608 -1.324184,3.7919828 -1.324185,1.3843746 -3.671603,1.3843746 H 70.607586 q 0,4.9355965 3.190081,7.70434572 3.25027,2.76874928 9.08872,2.76874928 3.611412,0 6.1394,-0.7824727 2.527989,-0.8426628 4.755026,-2.70855899 0.902853,-0.84266281 1.625136,-0.84266281 0.481521,0 0.902853,0.3611412 0.722282,0.60190201 0.722282,1.32418442 0,0.60190201 -0.541712,1.14361378 -4.755026,4.8754063 -13.602985,4.8754063 z M 92.456629,-10.92558 q 1.203804,0 1.745516,-0.481522 0.541711,-0.541711 0.541711,-1.745515 0,-2.347418 -1.564945,-4.213315 -1.504755,-1.865896 -4.273504,-2.889129 -2.708559,-1.083424 -6.139401,-1.083424 -5.718069,0 -8.908149,2.768749 -3.190081,2.70856 -3.190081,7.644156 z M 107.80508,6.0480566 q -0.90285,0 -1.38438,-0.601902 -0.48152,-0.5417118 -0.48152,-1.5649452 V -22.482099 q 0,-2.166847 1.8659,-2.166847 0.90285,0 1.38437,0.601902 0.48152,0.541712 0.48152,1.564945 v 3.912363 q 2.22704,-2.949319 5.41712,-4.514265 3.19008,-1.564945 6.98207,-1.564945 5.77826,0 8.78777,3.129891 3.0697,3.0697 3.0697,8.96834 V 3.8812094 q 0,1.0232334 -0.54172,1.5649452 -0.48152,0.601902 -1.38437,0.601902 -1.80571,0 -1.80571,-2.1668472 V -12.550715 q 0,-4.454075 -2.04646,-6.620923 -2.04647,-2.166847 -6.31997,-2.166847 -5.47731,0 -8.84796,3.250271 -3.31047,3.190081 -3.31047,8.4266282 V 3.8812094 q 0,1.0232334 -0.48152,1.5649452 -0.48152,0.601902 -1.38437,0.601902 z m 53.81004,-6.19959068 q 0.6019,0.42133141 0.6019,1.08342361 0,0.60190197 -0.48152,1.26399427 -1.2038,1.7455158 -3.37065,2.8289394 -2.16685,1.0232334 -4.51427,1.0232334 -3.79198,0 -6.01902,-2.3474178 -2.16684,-2.3474179 -2.16684,-6.2597809 V -20.856963 h -3.37065 q -2.10666,0 -2.10666,-1.625136 0,-1.564945 2.10666,-1.564945 h 3.37065 v -10.533285 q 0,-1.023233 0.48152,-1.564945 0.48152,-0.601902 1.38437,-0.601902 0.90286,0 1.38438,0.601902 0.48152,0.541712 0.48152,1.564945 v 10.533285 h 8.6072 q 2.10665,0 2.10665,1.564945 0,1.625136 -2.10665,1.625136 h -8.6072 v 18.5987719 q 0,4.9355965 4.57445,4.9355965 1.56495,0 2.70856,-0.5417118 1.20381,-0.5417119 2.34742,-1.86589627 0.84266,-0.84266282 1.56495,-0.84266282 0.54171,0 1.02323,0.42133141 z"
           id="path2" />
        <path
           d="m 192.79394,5.4461546 q -3.49103,0 -5.47731,-1.8658962 -1.92608,-1.8658963 -1.92608,-5.1161671 V -29.765113 q 0,-3.250271 1.92608,-5.055977 1.92609,-1.865896 5.41712,-1.865896 h 8.42663 q 6.1394,0 10.71386,2.648369 4.63464,2.588179 7.10244,7.343204 2.52799,4.755026 2.52799,11.135188 0,6.3199706 -2.52799,11.0749965 -2.4678,4.75502583 -7.10244,7.3432045 -4.57446,2.5881786 -10.71386,2.5881786 z m 7.76454,-3.310461 q 8.06548,0 12.51956,-4.6346455 4.51426,-4.6948357 4.51426,-13.0612731 0,-8.366438 -4.51426,-13.121464 -4.51427,-4.755026 -12.51956,-4.755026 h -8.0053 q -1.50475,0 -2.40761,1.023233 -0.90285,0.963044 -0.90285,2.527989 v 28.4699647 q 0,1.62513542 0.90285,2.5881786 0.90286,0.9630433 2.40761,0.9630433 z"
           id="path3" />
        <path
           d="m 240.46479,6.0480566 q -5.89864,0 -9.26929,-2.5881786 -3.31046,-2.58817867 -3.31046,-7.2228241 0,-4.5744553 3.43084,-7.2228239 3.49103,-2.648369 9.57024,-2.648369 3.67161,0 6.56074,1.023233 2.88913,0.963044 4.33369,2.7085594 V -14.05547 q 0,-3.551222 -2.34742,-5.417119 -2.34742,-1.865896 -6.92187,-1.865896 -5.65788,0 -9.93138,2.768749 -0.84267,0.481522 -1.44457,0.481522 -0.48152,0 -1.02323,-0.361141 -0.6019,-0.481522 -0.6019,-1.263994 0,-0.782473 0.6019,-1.263995 2.22704,-1.685325 5.47731,-2.648368 3.31046,-1.023234 6.80149,-1.023234 6.25978,0 9.69062,2.82894 3.43084,2.828939 3.43084,8.005296 V 3.8812094 q 0,2.1668472 -1.8057,2.1668472 -0.84267,0 -1.38438,-0.601902 -0.48152,-0.5417118 -0.48152,-1.504755 V 1.4736013 q -1.8659,2.2270375 -4.75503,3.4308415 -2.88913,1.1436138 -6.62092,1.1436138 z m 0.30095,-3.310461 q 4.9356,0 8.0053,-1.86589627 3.0697,-1.92608643 3.0697,-4.99578663 0,-2.9493199 -2.88913,-4.5744553 -2.88913,-1.6853254 -8.06549,-1.6853254 -4.45407,0 -6.86168,1.7455156 -2.34742,1.6853256 -2.34742,4.8754063 0,3.19008061 2.28723,4.8754062 2.34742,1.6251355 6.80149,1.6251355 z"
           id="path4" />
        <path
           d="m 282.95111,-0.15153408 q 0.6019,0.42133141 0.6019,1.08342361 0,0.60190197 -0.48152,1.26399427 -1.20381,1.7455158 -3.37065,2.8289394 -2.16685,1.0232334 -4.51427,1.0232334 -3.79198,0 -6.01902,-2.3474178 -2.16685,-2.3474179 -2.16685,-6.2597809 V -20.856963 h -3.37065 q -2.10665,0 -2.10665,-1.625136 0,-1.564945 2.10665,-1.564945 h 3.37065 v -10.533285 q 0,-1.023233 0.48153,-1.564945 0.48152,-0.601902 1.38437,-0.601902 0.90285,0 1.38437,0.601902 0.48153,0.541712 0.48153,1.564945 v 10.533285 h 8.60719 q 2.10666,0 2.10666,1.564945 0,1.625136 -2.10666,1.625136 h -8.60719 v 18.5987719 q 0,4.9355965 4.57445,4.9355965 1.56495,0 2.70856,-0.5417118 1.2038,-0.5417119 2.34742,-1.86589627 0.84266,-0.84266282 1.56494,-0.84266282 0.54172,0 1.02324,0.42133141 z m 18.11725,6.19959068 q -5.89864,0 -9.26929,-2.5881786 -3.31046,-2.58817867 -3.31046,-7.2228241 0,-4.5744553 3.43084,-7.2228239 3.49103,-2.648369 9.57024,-2.648369 3.6716,0 6.56073,1.023233 2.88913,0.963044 4.3337,2.7085594 V -14.05547 q 0,-3.551222 -2.34742,-5.417119 -2.34742,-1.865896 -6.92188,-1.865896 -5.65787,0 -9.93138,2.768749 -0.84266,0.481522 -1.44456,0.481522 -0.48153,0 -1.02324,-0.361141 -0.6019,-0.481522 -0.6019,-1.263994 0,-0.782473 0.6019,-1.263995 2.22704,-1.685325 5.47731,-2.648368 3.31046,-1.023234 6.80149,-1.023234 6.25978,0 9.69063,2.82894 3.43084,2.828939 3.43084,8.005296 V 3.8812094 q 0,2.1668472 -1.80571,2.1668472 -0.84266,0 -1.38437,-0.601902 -0.48152,-0.5417118 -0.48152,-1.504755 V 1.4736013 q -1.8659,2.2270375 -4.75503,3.4308415 -2.88913,1.1436138 -6.62092,1.1436138 z m 0.30095,-3.310461 q 4.93559,0 8.0053,-1.86589627 3.0697,-1.92608643 3.0697,-4.99578663 0,-2.9493199 -2.88913,-4.5744553 -2.88913,-1.6853254 -8.06549,-1.6853254 -4.45408,0 -6.86168,1.7455156 -2.34742,1.6853256 -2.34742,4.8754063 0,3.19008061 2.28723,4.8754062 2.34741,1.6251355 6.80149,1.6251355 z"
           id="path5" />
        <path
           d="m 345.42768,6.0480566 q -0.90285,0 -1.44456,-0.601902 Q 343.5016,4.9044428 343.5016,3.8812094 V -35.122041 q 0,-2.166847 1.92608,-2.166847 0.90286,0 1.38438,0.601902 0.54171,0.541712 0.54171,1.564945 V 3.8812094 q 0,1.0232334 -0.54171,1.5649452 -0.48152,0.601902 -1.38438,0.601902 z m 15.34848,0 q -0.90286,0 -1.38438,-0.601902 -0.48152,-0.5417118 -0.48152,-1.5649452 V -22.482099 q 0,-2.166847 1.8659,-2.166847 0.90285,0 1.38437,0.601902 0.48152,0.541712 0.48152,1.564945 v 3.912363 q 2.22704,-2.949319 5.41712,-4.514265 3.19008,-1.564945 6.98206,-1.564945 5.77826,0 8.78777,3.129891 3.0697,3.0697 3.0697,8.96834 V 3.8812094 q 0,1.0232334 -0.54171,1.5649452 -0.48152,0.601902 -1.38437,0.601902 -1.80571,0 -1.80571,-2.1668472 V -12.550715 q 0,-4.454075 -2.04647,-6.620923 -2.04646,-2.166847 -6.31997,-2.166847 -5.47731,0 -8.84796,3.250271 -3.31046,3.190081 -3.31046,8.4266282 V 3.8812094 q 0,1.0232334 -0.48152,1.5649452 -0.48152,0.601902 -1.38437,0.601902 z m 47.12892,0 q -4.09293,0 -7.76454,-1.6251354 -3.6716,-1.6853256 -5.71806,-4.51426508 -0.36115,-0.54171181 -0.36115,-1.08342362 0,-0.4815216 0.30096,-0.902853 0.36114,-0.4213314 0.84266,-0.601902 0.48152,-0.1203804 0.66209,-0.1203804 0.42133,0 0.78247,0.300951 0.36114,0.2407608 0.90286,0.902853 3.79198,4.2133141 10.35271,4.2133141 3.31046,0 5.41712,-1.0834237 2.10666,-1.14361377 2.10666,-3.3706512 0,-1.5649452 -0.90286,-2.4677982 -0.84266,-0.9630432 -2.58818,-1.6853257 -1.74551,-0.7222824 -5.95883,-2.1668472 -3.6716,-1.2639942 -5.77825,-2.2872272 -2.10666,-1.023234 -3.31047,-2.588179 -1.2038,-1.625135 -1.2038,-4.032744 0,-3.370651 3.00951,-5.477308 3.00951,-2.106657 7.94511,-2.106657 3.55122,0 6.68111,1.324185 3.19008,1.263994 4.75502,3.370651 0.42134,0.481521 0.42134,1.143614 0,0.842662 -0.84267,1.263994 -0.6019,0.300951 -1.08342,0.300951 -0.84266,0 -1.56495,-0.782473 -1.62513,-1.685325 -3.49103,-2.467798 -1.86589,-0.782473 -4.93559,-0.782473 -3.43085,0 -5.23655,1.143614 -1.74552,1.083424 -1.74552,3.190081 0,1.564945 0.78248,2.467798 0.84266,0.902853 2.22703,1.504755 1.44457,0.541712 5.23655,1.745516 4.2735,1.4445648 6.68111,2.708559 2.40761,1.203804 3.49103,2.7687492 1.14362,1.5649453 1.14362,3.9123631 0,3.6716022 -3.19008,5.7782593 -3.12989,2.106657 -8.06549,2.106657 z m 21.60828,-37.3781146 q -1.2038,0 -2.04647,-0.782473 -0.84266,-0.842663 -0.84266,-1.986276 0,-1.143614 0.84266,-1.986277 0.90286,-0.842663 2.04647,-0.842663 1.14361,0 2.04647,0.902853 0.90285,0.842663 0.90285,1.926087 0,1.083423 -0.90285,1.926086 -0.90286,0.842663 -2.04647,0.842663 z m 0,37.3781146 q -0.90285,0 -1.38438,-0.601902 -0.48152,-0.5417118 -0.48152,-1.5649452 V -22.482099 q 0,-2.166847 1.8659,-2.166847 0.90285,0 1.38437,0.601902 0.48153,0.541712 0.48153,1.564945 V 3.8812094 q 0,1.0232334 -0.48153,1.5649452 -0.48152,0.601902 -1.38437,0.601902 z m 27.50696,14.5058384 q -4.21332,0 -7.70435,-1.263994 -3.43084,-1.203804 -5.5375,-3.611412 -0.42133,-0.421332 -0.42133,-0.963043 0,-0.842663 0.84266,-1.384375 0.42134,-0.361141 1.02324,-0.361141 0.78247,0 1.50475,0.782472 1.38438,1.625136 3.85218,2.588179 2.52798,1.023233 6.01902,1.023233 6.1394,0 9.32948,-2.828939 3.25027,-2.82894 3.25027,-8.2460576 v -6.31997108 q -2.04647,2.76874928 -5.5375,4.63464548 -3.43084,1.805706 -7.82473,1.805706 -7.70434,0 -11.85747,-4.0929336 -4.09293,-4.0929337 -4.09293,-10.8944264 0,-4.6346458 1.80571,-8.2460578 1.8057,-3.611412 5.4773,-5.718069 3.7318,-2.106657 9.08872,-2.106657 4.15313,0 7.4034,1.685326 3.31046,1.685325 5.5375,4.875406 v -4.574455 q 0,-0.842663 0.54171,-1.384375 0.54171,-0.601902 1.38437,-0.601902 0.78248,0 1.264,0.601902 0.54171,0.541712 0.54171,1.384375 V 6.2888174 q 0,6.7413026 -4.39388,10.4730946 -4.3337,3.791983 -11.49633,3.791983 z M 456.05727,2.9783564 q 3.25027,0 6.25978,-1.3241845 3.00951,-1.32418437 4.87541,-4.0327434 1.92609,-2.708559 1.92609,-6.7413025 0,-3.430841 -1.50476,-6.199591 -1.50475,-2.828939 -4.39388,-4.393884 -2.82894,-1.625136 -6.80149,-1.625136 -6.1996,0 -9.51006,3.310461 -3.25027,3.310461 -3.25027,9.4498618 0,5.2967377 3.12989,8.42662812 3.19008,3.12989048 9.26929,3.12989048 z m 27.68754,3.0697002 q -0.90285,0 -1.38437,-0.601902 -0.48153,-0.5417118 -0.48153,-1.5649452 V -38.071361 q 0,-2.166847 1.8659,-2.166847 1.8659,0 1.8659,2.166847 v 19.501625 q 2.22703,-2.949319 5.41711,-4.514265 3.19009,-1.564945 6.98207,-1.564945 5.77826,0 8.78777,3.129891 3.0697,3.0697 3.0697,8.96834 V 3.8812094 q 0,1.0232334 -0.54171,1.5649452 -0.48153,0.601902 -1.38438,0.601902 -1.80571,0 -1.80571,-2.1668472 V -12.550715 q 0,-4.454075 -2.04646,-6.620923 -2.04647,-2.166847 -6.31997,-2.166847 -5.47731,0 -8.84796,3.250271 -3.31046,3.190081 -3.31046,8.4266282 V 3.8812094 q 0,1.0232334 -0.48153,1.5649452 -0.48152,0.601902 -1.38437,0.601902 z m 53.81004,-6.19959068 q 0.6019,0.42133141 0.6019,1.08342361 0,0.60190197 -0.48152,1.26399427 -1.2038,1.7455158 -3.37065,2.8289394 -2.16685,1.0232334 -4.51426,1.0232334 -3.79199,0 -6.01902,-2.3474178 -2.16685,-2.3474179 -2.16685,-6.2597809 V -20.856963 h -3.37065 q -2.10666,0 -2.10666,-1.625136 0,-1.564945 2.10666,-1.564945 h 3.37065 v -10.533285 q 0,-1.023233 0.48152,-1.564945 0.48152,-0.601902 1.38437,-0.601902 0.90286,0 1.38438,0.601902 0.48152,0.541712 0.48152,1.564945 v 10.533285 h 8.6072 q 2.10666,0 2.10666,1.564945 0,1.625136 -2.10666,1.625136 h -8.6072 v 18.5987719 q 0,4.9355965 4.57446,4.9355965 1.56494,0 2.70856,-0.5417118 1.2038,-0.5417119 2.34741,-1.86589627 0.84267,-0.84266282 1.56495,-0.84266282 0.54171,0 1.02323,0.42133141 z m 19.44143,6.19959068 q -4.09293,0 -7.76453,-1.6251354 -3.67161,-1.6853256 -5.71807,-4.51426508 -0.36114,-0.54171181 -0.36114,-1.08342362 0,-0.4815216 0.30095,-0.902853 0.36114,-0.4213314 0.84266,-0.601902 0.48152,-0.1203804 0.66209,-0.1203804 0.42133,0 0.78248,0.300951 0.36114,0.2407608 0.90285,0.902853 3.79198,4.2133141 10.35271,4.2133141 3.31046,0 5.41712,-1.0834237 2.10666,-1.14361377 2.10666,-3.3706512 0,-1.5649452 -0.90286,-2.4677982 -0.84266,-0.9630432 -2.58817,-1.6853257 -1.74552,-0.7222824 -5.95883,-2.1668472 -3.67161,-1.2639942 -5.77826,-2.2872272 -2.10666,-1.023234 -3.31046,-2.588179 -1.20381,-1.625135 -1.20381,-4.032744 0,-3.370651 3.00951,-5.477308 3.00951,-2.106657 7.94511,-2.106657 3.55122,0 6.68111,1.324185 3.19008,1.263994 4.75503,3.370651 0.42133,0.481521 0.42133,1.143614 0,0.842662 -0.84266,1.263994 -0.60191,0.300951 -1.08343,0.300951 -0.84266,0 -1.56494,-0.782473 -1.62514,-1.685325 -3.49104,-2.467798 -1.86589,-0.782473 -4.93559,-0.782473 -3.43084,0 -5.23655,1.143614 -1.74552,1.083424 -1.74552,3.190081 0,1.564945 0.78248,2.467798 0.84266,0.902853 2.22703,1.504755 1.44457,0.541712 5.23655,1.745516 4.27351,1.4445648 6.68111,2.708559 2.40761,1.203804 3.49104,2.7687492 1.14361,1.5649453 1.14361,3.9123631 0,3.6716022 -3.19008,5.7782593 -3.12989,2.106657 -8.06549,2.106657 z"
           id="path6" />
      </g>
      <g
         id="text8"
         style="font-weight:300;font-size:49.2502px;font-family:Manrope-Light, Manrope;font-variation-settings:'wght' 300;fill:#ffffff;stroke-width:1.00003"
         class="cls-2"
         transform="scale(0.99210315,1.0079597)"
         aria-label="accessible | actionable">
        <path
           d="m 15.460556,73.636733 q -3.078137,0 -5.12202,-1.083505 -2.0192586,-1.083504 -3.0288876,-2.856511 -1.0096291,-1.797632 -1.0096291,-3.890766 0,-2.265509 0.9357538,-3.792265 0.9603788,-1.526756 2.5363852,-2.46251 1.6006317,-0.935754 3.5213887,-1.403631 2.191634,-0.492502 4.72802,-0.837253 2.536385,-0.369377 4.826519,-0.640253 2.314759,-0.270876 3.76764,-0.467877 l -1.034254,0.615628 q 0.0985,-4.309392 -1.625257,-6.402526 -1.699131,-2.117758 -6.008524,-2.117758 -3.028887,0 -4.998895,1.379005 -1.945383,1.354381 -2.733386,4.210892 L 7.3096484,53.074775 q 0.9111286,-3.61989 3.6691396,-5.565273 2.758011,-1.945382 7.067404,-1.945382 3.669139,0 6.156274,1.428255 2.511761,1.428256 3.496764,4.013892 0.418627,1.058879 0.566378,2.487135 0.14775,1.40363 0.14775,2.831886 V 72.89798 h -2.585635 v -6.993528 l 0.960379,0.246251 q -1.20663,3.595264 -4.210892,5.540647 -3.004262,1.945383 -7.116654,1.945383 z m 0.147751,-2.610261 q 2.708761,0 4.752644,-0.960379 2.043883,-0.985004 3.299763,-2.733386 1.280505,-1.773007 1.625257,-4.161641 0.246251,-1.329756 0.270876,-2.881137 0.02463,-1.551381 0.02463,-2.290134 l 1.231255,0.788003 q -1.600632,0.197001 -3.841516,0.418627 -2.216258,0.221625 -4.531018,0.541752 -2.314759,0.320126 -4.186267,0.812628 -1.157379,0.320126 -2.339384,0.935754 -1.15738,0.591002 -1.9453829,1.649881 -0.7633781,1.05888 -0.7633781,2.684136 0,1.20663 0.5910024,2.41326 0.6156276,1.20663 2.0192586,1.994633 1.40363,0.788003 3.792265,0.788003 z"
           id="path7" />
        <path
           d="m 46.167935,73.636733 q -3.989266,0 -6.722652,-1.773007 -2.733386,-1.797633 -4.161642,-4.949645 -1.403631,-3.176638 -1.452881,-7.313655 0.04925,-4.210892 1.477506,-7.362904 1.452881,-3.176638 4.186267,-4.92502 2.733386,-1.748382 6.698027,-1.748382 3.86614,0 6.796527,1.871507 2.955012,1.846883 4.087767,5.097396 l -2.758011,1.009629 q -1.00963,-2.487135 -3.176638,-3.841516 -2.167009,-1.379005 -4.97427,-1.379005 -3.152013,0 -5.195896,1.452881 -2.043883,1.428255 -3.053512,3.964641 -1.00963,2.536385 -1.05888,5.860773 0.07388,5.097396 2.388635,8.200158 2.339384,3.078138 6.919653,3.078138 2.831886,0 4.900394,-1.305131 2.093134,-1.30513 3.201263,-3.792265 l 2.807262,0.960379 q -1.551382,3.373639 -4.334018,5.146646 -2.782636,1.748382 -6.574901,1.748382 z m 26.176473,0 q -3.989266,0 -6.722652,-1.773007 -2.733386,-1.797633 -4.161641,-4.949645 -1.403631,-3.176638 -1.452881,-7.313655 0.04925,-4.210892 1.477506,-7.362904 1.45288,-3.176638 4.186266,-4.92502 2.733386,-1.748382 6.698027,-1.748382 3.866141,0 6.796528,1.871507 2.955012,1.846883 4.087766,5.097396 l -2.758011,1.009629 q -1.009629,-2.487135 -3.176638,-3.841516 -2.167008,-1.379005 -4.97427,-1.379005 -3.152012,0 -5.195896,1.452881 -2.043883,1.428255 -3.053512,3.964641 -1.009629,2.536385 -1.058879,5.860773 0.07388,5.097396 2.388634,8.200158 2.339385,3.078138 6.919653,3.078138 2.831887,0 4.900395,-1.305131 2.093134,-1.30513 3.201263,-3.792265 l 2.807261,0.960379 q -1.551381,3.373639 -4.334017,5.146646 -2.782636,1.748382 -6.574902,1.748382 z"
           id="path10" />
        <path
           d="m 99.597875,73.636733 q -3.81689,0 -6.599526,-1.699132 -2.782637,-1.723757 -4.309393,-4.851145 -1.526756,-3.152012 -1.526756,-7.43678 0,-4.358642 1.502131,-7.510655 1.526756,-3.176638 4.284767,-4.87577 2.782637,-1.699131 6.599527,-1.699131 3.866145,0 6.599525,1.773007 2.75801,1.748382 4.18627,5.07277 1.45288,3.324389 1.379,8.003157 h -2.95501 V 59.42805 q -0.12312,-5.466772 -2.46251,-8.323283 -2.33938,-2.856512 -6.698025,-2.856512 -4.506393,0 -6.968903,2.979637 -2.437885,2.955012 -2.437885,8.372534 0,5.368272 2.437885,8.323284 2.46251,2.955012 6.919653,2.955012 3.078135,0 5.368275,-1.428256 2.31476,-1.452881 3.66914,-4.137017 l 2.56101,1.132755 q -1.60063,3.447514 -4.62952,5.319021 -3.02889,1.871508 -6.919655,1.871508 z M 89.107583,60.413054 v -2.56101 h 21.005207 v 2.56101 z m 37.873427,13.174429 q -4.60489,0 -7.60916,-1.945383 -2.97963,-1.945383 -3.69376,-5.417522 l 2.90576,-0.492502 q 0.61563,2.364009 2.90576,3.76764 2.29014,1.403631 5.61452,1.403631 3.29977,0 5.24515,-1.403631 1.94538,-1.403631 1.94538,-3.841515 0,-1.329756 -0.61562,-2.167009 -0.59101,-0.861879 -2.36401,-1.576006 -1.77301,-0.714128 -5.26978,-1.674507 -3.69376,-0.985004 -5.78689,-1.970008 -2.06851,-0.985004 -2.93039,-2.240884 -0.83725,-1.25588 -0.83725,-3.078138 0,-2.191633 1.25588,-3.841515 1.25588,-1.674507 3.49676,-2.610261 2.26551,-0.935753 5.22052,-0.935753 2.95501,0 5.31902,0.985004 2.36401,0.960378 3.81689,2.708761 1.45288,1.723756 1.67451,4.013891 l -2.90576,0.541752 q -0.41863,-2.56101 -2.58564,-4.038516 -2.16701,-1.502131 -5.41752,-1.526757 -3.07814,-0.04925 -5.02352,1.231255 -1.94538,1.25588 -1.94538,3.324389 0,1.182005 0.66488,2.019258 0.6895,0.812628 2.41326,1.502131 1.72375,0.689503 4.87577,1.477506 3.84151,0.985004 5.98389,2.019258 2.16701,1.034254 3.05352,2.437885 0.8865,1.379005 0.8865,3.422889 0,3.693765 -2.75801,5.811523 -2.73339,2.093134 -7.53528,2.093134 z m 25.58551,0 q -4.60489,0 -7.60915,-1.945383 -2.97964,-1.945383 -3.69377,-5.417522 l 2.90576,-0.492502 q 0.61563,2.364009 2.90577,3.76764 2.29013,1.403631 5.61452,1.403631 3.29976,0 5.24514,-1.403631 1.94539,-1.403631 1.94539,-3.841515 0,-1.329756 -0.61563,-2.167009 -0.591,-0.861879 -2.36401,-1.576006 -1.77301,-0.714128 -5.26977,-1.674507 -3.69377,-0.985004 -5.7869,-1.970008 -2.06851,-0.985004 -2.93039,-2.240884 -0.83725,-1.25588 -0.83725,-3.078138 0,-2.191633 1.25588,-3.841515 1.25588,-1.674507 3.49676,-2.610261 2.26551,-0.935753 5.22053,-0.935753 2.95501,0 5.31902,0.985004 2.36401,0.960378 3.81689,2.708761 1.45288,1.723756 1.6745,4.013891 l -2.90576,0.541752 q -0.41862,-2.56101 -2.58563,-4.038516 -2.16701,-1.502131 -5.41752,-1.526757 -3.07814,-0.04925 -5.02352,1.231255 -1.94539,1.25588 -1.94539,3.324389 0,1.182005 0.66488,2.019258 0.6895,0.812628 2.41326,1.502131 1.72376,0.689503 4.87577,1.477506 3.84151,0.985004 5.9839,2.019258 2.16701,1.034254 3.05351,2.437885 0.8865,1.379005 0.8865,3.422889 0,3.693765 -2.75801,5.811523 -2.73338,2.093134 -7.53528,2.093134 z m 16.25261,-32.652882 v -3.61989 h 2.83188 v 3.61989 z m 0,31.963379 V 46.302873 h 2.83188 V 72.89798 Z m 21.86711,0.738753 q -3.59526,0 -6.0824,-1.871508 -2.48713,-1.871507 -3.79226,-5.048145 -1.30513,-3.176638 -1.30513,-7.165904 0,-4.013891 1.30513,-7.165904 1.30513,-3.176638 3.86614,-4.998895 2.56101,-1.822257 6.2794,-1.822257 3.61989,0 6.1809,1.846882 2.56101,1.846883 3.89076,5.02352 1.35438,3.176638 1.35438,7.116654 0,3.989266 -1.379,7.190529 -1.35438,3.176638 -3.96464,5.048145 -2.58564,1.846883 -6.35328,1.846883 z M 179.03857,72.89798 V 37.437837 h 2.83189 v 14.97206 h -0.24625 V 72.89798 Z m 11.4753,-1.970008 q 2.93038,0 4.87577,-1.502131 1.97,-1.502131 2.95501,-4.063142 1.00963,-2.585635 1.00963,-5.811523 0,-3.201263 -0.98501,-5.737648 -0.96038,-2.56101 -2.93038,-4.038516 -1.94539,-1.502131 -4.97427,-1.502131 -2.93039,0 -4.9004,1.45288 -1.97001,1.428256 -2.95501,3.989266 -0.985,2.561011 -0.985,5.836149 0,3.250513 0.96037,5.836148 0.98501,2.561011 2.95502,4.063142 1.99463,1.477506 4.97427,1.477506 z m 17.7793,1.970008 V 36.699084 h 2.83189 V 72.89798 Z m 21.17763,0.738753 q -3.81689,0 -6.59953,-1.699132 -2.78263,-1.723757 -4.30939,-4.851145 -1.52676,-3.152012 -1.52676,-7.43678 0,-4.358642 1.50214,-7.510655 1.52675,-3.176638 4.28476,-4.87577 2.78264,-1.699131 6.59953,-1.699131 3.86614,0 6.59953,1.773007 2.75801,1.748382 4.18626,5.07277 1.45288,3.324389 1.37901,8.003157 h -2.95501 V 59.42805 q -0.12313,-5.466772 -2.46251,-8.323283 -2.33939,-2.856512 -6.69803,-2.856512 -4.50639,0 -6.9689,2.979637 -2.43789,2.955012 -2.43789,8.372534 0,5.368272 2.43789,8.323284 2.46251,2.955012 6.91965,2.955012 3.07814,0 5.36827,-1.428256 2.31476,-1.452881 3.66914,-4.137017 l 2.56101,1.132755 q -1.60063,3.447514 -4.62952,5.319021 -3.02888,1.871508 -6.91965,1.871508 z M 218.98051,60.413054 v -2.56101 h 21.00521 v 2.56101 z M 257.8636,72.89798 V 37.437837 h 2.83189 V 72.89798 Z m 28.24498,0.738753 q -3.07814,0 -5.12202,-1.083505 -2.01926,-1.083504 -3.02889,-2.856511 -1.00963,-1.797632 -1.00963,-3.890766 0,-2.265509 0.93576,-3.792265 0.96038,-1.526756 2.53638,-2.46251 1.60063,-0.935754 3.52139,-1.403631 2.19163,-0.492502 4.72802,-0.837253 2.53639,-0.369377 4.82652,-0.640253 2.31476,-0.270876 3.76764,-0.467877 l -1.03425,0.615628 q 0.0985,-4.309392 -1.62526,-6.402526 -1.69913,-2.117758 -6.00853,-2.117758 -3.02888,0 -4.99889,1.379005 -1.94538,1.354381 -2.73339,4.210892 l -2.90576,-0.812628 q 0.91113,-3.61989 3.66914,-5.565273 2.75801,-1.945382 7.06741,-1.945382 3.66913,0 6.15627,1.428255 2.51176,1.428256 3.49676,4.013892 0.41863,1.058879 0.56638,2.487135 0.14775,1.40363 0.14775,2.831886 V 72.89798 h -2.58563 v -6.993528 l 0.96038,0.246251 q -1.20663,3.595264 -4.2109,5.540647 -3.00426,1.945383 -7.11665,1.945383 z m 0.14775,-2.610261 q 2.70876,0 4.75264,-0.960379 2.04389,-0.985004 3.29977,-2.733386 1.2805,-1.773007 1.62525,-4.161641 0.24626,-1.329756 0.27088,-2.881137 0.0246,-1.551381 0.0246,-2.290134 l 1.23125,0.788003 q -1.60063,0.197001 -3.84151,0.418627 -2.21626,0.221625 -4.53102,0.541752 -2.31476,0.320126 -4.18627,0.812628 -1.15738,0.320126 -2.33938,0.935754 -1.15738,0.591002 -1.94539,1.649881 -0.76338,1.05888 -0.76338,2.684136 0,1.20663 0.59101,2.41326 0.61562,1.20663 2.01926,1.994633 1.40363,0.788003 3.79226,0.788003 z m 30.06723,2.610261 q -3.98926,0 -6.72265,-1.773007 -2.73339,-1.797633 -4.16164,-4.949645 -1.40363,-3.176638 -1.45288,-7.313655 0.0493,-4.210892 1.4775,-7.362904 1.45289,-3.176638 4.18627,-4.92502 2.73339,-1.748382 6.69803,-1.748382 3.86614,0 6.79653,1.871507 2.95501,1.846883 4.08776,5.097396 l -2.75801,1.009629 q -1.00963,-2.487135 -3.17664,-3.841516 -2.16701,-1.379005 -4.97427,-1.379005 -3.15201,0 -5.19589,1.452881 -2.04389,1.428255 -3.05352,3.964641 -1.00962,2.536385 -1.05887,5.860773 0.0739,5.097396 2.38863,8.200158 2.33938,3.078138 6.91965,3.078138 2.83189,0 4.9004,-1.305131 2.09313,-1.30513 3.20126,-3.792265 l 2.80726,0.960379 q -1.55138,3.373639 -4.33402,5.146646 -2.78263,1.748382 -6.5749,1.748382 z m 30.16572,-0.738753 q -2.11776,0.467877 -4.18626,0.344751 -2.06851,-0.0985 -3.69377,-0.911129 -1.60063,-0.837253 -2.41326,-2.56101 -0.66488,-1.403631 -0.73875,-2.831886 -0.0739,-1.428256 -0.0739,-3.275138 V 38.915343 h 2.85651 v 24.698974 q 0,1.674507 0.0246,2.782637 0.0493,1.083504 0.51713,1.994633 0.8865,1.699131 2.80726,2.068508 1.92076,0.344751 4.90039,-0.123126 z M 329.42409,48.888508 v -2.585635 h 17.06519 v 2.585635 z m 22.65505,-7.953907 v -3.61989 h 2.83188 v 3.61989 z m 0,31.963379 V 46.302873 h 2.83188 V 72.89798 Z m 21.12839,0.738753 q -3.96464,0 -6.72265,-1.797633 -2.75801,-1.797632 -4.21089,-4.97427 -1.45288,-3.176637 -1.45288,-7.313654 0,-4.161642 1.4775,-7.313654 1.47751,-3.176638 4.23552,-4.92502 2.78263,-1.748382 6.6734,-1.748382 3.96464,0 6.72265,1.797632 2.78264,1.773007 4.21089,4.92502 1.45288,3.152012 1.45288,7.264404 0,4.210892 -1.45288,7.38753 -1.45288,3.152012 -4.23551,4.92502 -2.78264,1.773007 -6.69803,1.773007 z m 0,-2.758011 q 4.70339,0 7.01815,-3.152013 2.33939,-3.152013 2.33939,-8.175533 0,-5.122021 -2.33939,-8.175533 -2.33938,-3.053512 -7.01815,-3.053512 -3.17664,0 -5.24515,1.452881 -2.0685,1.428255 -3.10276,3.964641 -1.00963,2.51176 -1.00963,5.811523 0,5.122021 2.36401,8.224783 2.38864,3.102763 6.99353,3.102763 z m 37.28239,2.019258 V 59.058674 q 0,-2.51176 -0.51712,-4.481768 -0.4925,-1.970008 -1.52676,-3.349014 -1.00963,-1.379005 -2.56101,-2.093133 -1.52676,-0.714128 -3.61989,-0.714128 -2.16701,0 -3.76764,0.763378 -1.57601,0.738753 -2.61026,2.093134 -1.00963,1.35438 -1.52676,3.225888 -0.4925,1.846882 -0.4925,4.038516 l -2.24088,-0.270876 q 0,-4.309393 1.45288,-7.092029 1.47751,-2.807261 3.96464,-4.137016 2.48714,-1.354381 5.5899,-1.354381 2.19163,0 3.91539,0.640253 1.74838,0.640252 3.02889,1.822257 1.2805,1.15738 2.11775,2.758011 0.83726,1.576007 1.23126,3.472139 0.41863,1.896133 0.41863,3.964641 V 72.89798 Z m -19.47845,0 V 46.302873 h 2.58564 v 5.983899 h 0.27087 V 72.89798 Z m 36.42052,0.738753 q -3.07814,0 -5.12202,-1.083505 -2.01926,-1.083504 -3.02889,-2.856511 -1.00963,-1.797632 -1.00963,-3.890766 0,-2.265509 0.93576,-3.792265 0.96038,-1.526756 2.53638,-2.46251 1.60063,-0.935754 3.52139,-1.403631 2.19163,-0.492502 4.72802,-0.837253 2.53639,-0.369377 4.82652,-0.640253 2.31476,-0.270876 3.76764,-0.467877 l -1.03425,0.615628 q 0.0985,-4.309392 -1.62526,-6.402526 -1.69913,-2.117758 -6.00853,-2.117758 -3.02888,0 -4.99889,1.379005 -1.94538,1.354381 -2.73339,4.210892 l -2.90576,-0.812628 q 0.91113,-3.61989 3.66914,-5.565273 2.75801,-1.945382 7.06741,-1.945382 3.66914,0 6.15627,1.428255 2.51176,1.428256 3.49676,4.013892 0.41863,1.058879 0.56638,2.487135 0.14775,1.40363 0.14775,2.831886 V 72.89798 h -2.58563 v -6.993528 l 0.96038,0.246251 q -1.20663,3.595264 -4.2109,5.540647 -3.00426,1.945383 -7.11665,1.945383 z m 0.14775,-2.610261 q 2.70876,0 4.75264,-0.960379 2.04389,-0.985004 3.29977,-2.733386 1.2805,-1.773007 1.62525,-4.161641 0.24626,-1.329756 0.27088,-2.881137 0.0246,-1.551381 0.0246,-2.290134 l 1.23125,0.788003 q -1.60063,0.197001 -3.84151,0.418627 -2.21626,0.221625 -4.53102,0.541752 -2.31476,0.320126 -4.18627,0.812628 -1.15738,0.320126 -2.33938,0.935754 -1.15738,0.591002 -1.94539,1.649881 -0.76338,1.05888 -0.76338,2.684136 0,1.20663 0.59101,2.41326 0.61562,1.20663 2.01926,1.994633 1.40363,0.788003 3.79226,0.788003 z m 30.85525,2.610261 q -3.59526,0 -6.0824,-1.871508 -2.48713,-1.871507 -3.79226,-5.048145 -1.30513,-3.176638 -1.30513,-7.165904 0,-4.013891 1.30513,-7.165904 1.30513,-3.176638 3.86614,-4.998895 2.56101,-1.822257 6.2794,-1.822257 3.61989,0 6.1809,1.846882 2.56101,1.846883 3.89076,5.02352 1.35438,3.176638 1.35438,7.116654 0,3.989266 -1.379,7.190529 -1.35438,3.176638 -3.96464,5.048145 -2.58564,1.846883 -6.35328,1.846883 z M 446.78732,72.89798 V 37.437837 h 2.83189 v 14.97206 h -0.24626 V 72.89798 Z m 11.4753,-1.970008 q 2.93038,0 4.87577,-1.502131 1.97,-1.502131 2.95501,-4.063142 1.00963,-2.585635 1.00963,-5.811523 0,-3.201263 -0.98501,-5.737648 -0.96038,-2.56101 -2.93038,-4.038516 -1.94539,-1.502131 -4.97427,-1.502131 -2.93039,0 -4.9004,1.45288 -1.97001,1.428256 -2.95501,3.989266 -0.98501,2.561011 -0.98501,5.836149 0,3.250513 0.96038,5.836148 0.98501,2.561011 2.95502,4.063142 1.99463,1.477506 4.97427,1.477506 z m 17.77929,1.970008 V 36.699084 h 2.83188 V 72.89798 Z m 21.17761,0.738753 q -3.81689,0 -6.59953,-1.699132 -2.78263,-1.723757 -4.30939,-4.851145 -1.52676,-3.152012 -1.52676,-7.43678 0,-4.358642 1.50213,-7.510655 1.52676,-3.176638 4.28477,-4.87577 2.78264,-1.699131 6.59953,-1.699131 3.86614,0 6.59952,1.773007 2.75802,1.748382 4.18627,5.07277 1.45288,3.324389 1.37901,8.003157 h -2.95501 V 59.42805 q -0.12313,-5.466772 -2.46251,-8.323283 -2.33939,-2.856512 -6.69803,-2.856512 -4.50639,0 -6.9689,2.979637 -2.43789,2.955012 -2.43789,8.372534 0,5.368272 2.43789,8.323284 2.46251,2.955012 6.91965,2.955012 3.07814,0 5.36827,-1.428256 2.31476,-1.452881 3.66914,-4.137017 l 2.56101,1.132755 q -1.60063,3.447514 -4.62952,5.319021 -3.02889,1.871508 -6.91965,1.871508 z M 486.72923,60.413054 v -2.56101 h 21.00521 v 2.56101 z"
           id="path11" />
      </g>
      <path
         class="cls-4"
         d="m 430.12789,-125.32704 c -2.02397,-1.39101 -3.66099,-2.38891 -5.68492,-3.8505 -4.01815,-3.11467 -8.03626,-6.37048 -12.02461,-9.68677 -7.97671,-6.70312 -15.89393,-13.66828 -23.78137,-20.70404 -7.91718,-7.09623 -15.77485,-14.40413 -23.59285,-21.833 l -11.6873,-11.34993 c -3.8693,-3.8505 -7.69893,-7.83205 -11.44916,-11.94465 l -1.07149,-1.05838 -0.16866,-0.0303 -19.6938,18.00267 5.12934,4.8585 8.6216,-6.64262 c 4.41498,3.02394 10.65546,4.24362 14.60413,3.33643 0.77388,0.68543 1.5378,1.37085 2.31168,2.0462 l 11.99485,10.15046 c 8.0065,6.70309 16.05264,13.1441 24.0889,19.44403 8.06602,6.23943 16.29079,14.7771 24.41632,20.68389 4.0479,2.85262 4.00821,3.88075 8.12554,6.60233 2.05374,1.25998 5.77419,3.38687 7.75846,4.68714 3.37325,2.20749 6.57781,0.81647 8.67122,1.67326 -2.36127,-2.00588 -4.53402,-2.92315 -6.55795,-4.37467 z"
         id="path8"
         style="fill:#ffffff;fill-opacity:1;stroke-width:1.00003" />
      <path
         class="cls-6"
         d="m 323.12666,-186.81424 -4.44476,-4.51577 c -3.88913,-4.10251 -5.52617,-5.62456 -9.61371,-9.78754 -7.33185,-7.42888 -15.03078,-15.12989 -22.88845,-22.2967 l -2.94662,-2.72156 c -1.23025,-1.1995 -2.75814,-1.98572 -4.23639,-1.98572 -1.46835,-0.13104 -2.97639,0.46368 -4.35547,1.66316 l -3.06568,2.78207 c -3.98834,3.71946 -8.03623,7.29781 -11.96506,11.27936 -7.9172,7.70101 -15.77488,15.86571 -23.41428,24.0909 -4.30582,4.61657 -8.53232,9.24322 -12.69926,13.87997 l -7.07389,8.0034 c -0.83338,0.9576 -1.70646,1.91517 -2.53984,2.87277 -14.3561,16.5209 -27.61097,32.44711 -38.94111,46.38755 -4.88127,6.10843 -9.38553,11.81362 -13.47311,16.9846 -1.80567,2.31837 -3.50223,4.515776 -5.11938,6.572068 0,0 -3.81971,3.427156 2.18268,2.590526 5.0301,-0.69551 10.90349,-3.487634 10.90349,-3.487634 3.60144,-1.632938 5.79401,-8.72916 8.06602,-12.9728 8.53233,-15.95641 26.16249,-23.50624 40.31025,-40.43035 4.04788,-4.86857 8.19499,-9.8178 12.38176,-14.77709 2.42081,0.15121 4.86144,0.47375 6.98461,1.08862 7.67909,2.24782 11.48885,14.37389 18.75125,13.33569 7.26236,-1.03823 18.42383,-23.57682 26.65852,-26.31856 8.2347,-2.75179 38.85181,19.86743 46.55074,21.88341 5.03011,1.32046 12.66947,0.0908 17.38211,-0.91727 0.3274,0.30238 0.66473,0.63503 0.98221,0.91727 3.12522,3.05419 6.14126,6.03786 8.9887,8.7594 7.85769,7.70103 15.41769,15.95643 19.18779,22.00436 6.04208,9.69686 10.17924,6.86441 11.00272,7.6607 -0.79369,-0.99791 -4.41496,-5.3121 -10.21893,-12.20673 -4.5142,-5.31208 -10.30824,-12.14624 -17.15394,-20.03877 -2.88709,-3.31625 -5.95279,-6.77369 -9.17719,-10.35204 -0.45639,-0.53423 -0.89293,-0.99789 -1.34931,-1.52205 -6.97469,-7.83206 -14.74302,-16.39997 -22.98764,-25.21984 l 0.0992,-0.0706"
         id="path9"
         style="fill:#ffffff;fill-opacity:1;stroke-width:1.00003" />
    </g>
  </g>
</svg>
